<svg viewBox="0 0 32 32" xmlns="http://www.w3.org/2000/svg">
  <path d="M1 9H3.1L8 18.2V9H9.7V20H7.6L2.7 11.2V20H1V9ZM11.5 14.8C11.5 13 12.9 11.6 14.7 11.6H16.7C18.5 11.6 19.9 13 19.9 14.8V16.2C19.9 18 18.5 19.4 16.7 19.4H14.7C12.9 19.4 11.5 18 11.5 16.2V14.8ZM13.2 16.2C13.2 17.1 13.9 17.8 14.7 17.8H16.7C17.5 17.8 18.2 17.1 18.2 16.2V14.8C18.2 13.9 17.5 13.2 16.7 13.2H14.7C13.9 13.2 13.2 13.9 13.2 14.8V16.2ZM21.7 14.1C21.7 13 22.4 11.6 24 11.6H26.1V13.3H24C23.5 13.3 23.2 13.7 23.2 14.4V20H21.7V14.1ZM27.5 14.8C27.5 13 28.9 11.6 30.7 11.6H33V13.3H30.7C29.9 13.3 29.2 14 29.2 14.8V16.2C29.2 17 29.9 17.7 30.7 17.7H33.7V9H35.4V17.7C35.4 18.6 34.6 19.4 33.7 19.4H30.7C28.9 19.4 27.5 18 27.5 16.2V14.8Z" fill="#DEDCDD"/>
</svg>
