<svg width="1024" height="1024" viewBox="0 0 1024 1024" fill="none" xmlns="http://www.w3.org/2000/svg">
<path d="M278.418 749.5V689.393L498.162 339.679H279.066V271.375H584.374V331.482L364.63 681.196H585.023V749.5H278.418Z" fill="white"/>
<path fill-rule="evenodd" clip-rule="evenodd" d="M309.704 840.125C326.983 840.125 340.99 826.134 340.99 808.875C340.99 791.616 326.983 777.625 309.704 777.625C292.425 777.625 278.418 791.616 278.418 808.875C278.418 826.134 292.425 840.125 309.704 840.125ZM309.704 833.875C323.527 833.875 334.733 822.682 334.733 808.875C334.733 795.068 323.527 783.875 309.704 783.875C295.881 783.875 284.675 795.068 284.675 808.875C284.675 822.682 295.881 833.875 309.704 833.875Z" fill="white"/>
<path fill-rule="evenodd" clip-rule="evenodd" d="M56.2862 574.5C73.5651 574.5 87.5723 560.509 87.5723 543.25C87.5723 525.991 73.5651 512 56.2862 512C39.0073 512 25 525.991 25 543.25C25 560.509 39.0073 574.5 56.2862 574.5ZM56.2862 568.25C70.1093 568.25 81.3151 557.057 81.3151 543.25C81.3151 529.443 70.1093 518.25 56.2862 518.25C42.4631 518.25 31.2572 529.443 31.2572 543.25C31.2572 557.057 42.4631 568.25 56.2862 568.25Z" fill="white"/>
<path fill-rule="evenodd" clip-rule="evenodd" d="M309.704 449.5C326.983 449.5 340.99 435.509 340.99 418.25C340.99 400.991 326.983 387 309.704 387C292.425 387 278.418 400.991 278.418 418.25C278.418 435.509 292.425 449.5 309.704 449.5ZM309.704 443.25C323.527 443.25 334.733 432.057 334.733 418.25C334.733 404.443 323.527 393.25 309.704 393.25C295.881 393.25 284.675 404.443 284.675 418.25C284.675 432.057 295.881 443.25 309.704 443.25Z" fill="white"/>
<path fill-rule="evenodd" clip-rule="evenodd" d="M184.559 512C201.838 512 215.846 498.009 215.846 480.75C215.846 463.491 201.838 449.5 184.559 449.5C167.281 449.5 153.273 463.491 153.273 480.75C153.273 498.009 167.281 512 184.559 512ZM184.559 505.75C198.383 505.75 209.588 494.557 209.588 480.75C209.588 466.943 198.383 455.75 184.559 455.75C170.736 455.75 159.531 466.943 159.531 480.75C159.531 494.557 170.736 505.75 184.559 505.75Z" fill="white"/>
<path fill-rule="evenodd" clip-rule="evenodd" d="M137.63 746.375C154.909 746.375 168.916 732.384 168.916 715.125C168.916 697.866 154.909 683.875 137.63 683.875C120.351 683.875 106.344 697.866 106.344 715.125C106.344 732.384 120.351 746.375 137.63 746.375ZM137.63 740.125C151.453 740.125 162.659 728.932 162.659 715.125C162.659 701.318 151.453 690.125 137.63 690.125C123.807 690.125 112.601 701.318 112.601 715.125C112.601 728.932 123.807 740.125 137.63 740.125Z" fill="white"/>
<path fill-rule="evenodd" clip-rule="evenodd" d="M309.704 224.5C326.983 224.5 340.99 210.509 340.99 193.25C340.99 175.991 326.983 162 309.704 162C292.425 162 278.418 175.991 278.418 193.25C278.418 210.509 292.425 224.5 309.704 224.5ZM309.704 218.25C323.527 218.25 334.733 207.057 334.733 193.25C334.733 179.443 323.527 168.25 309.704 168.25C295.881 168.25 284.675 179.443 284.675 193.25C284.675 207.057 295.881 218.25 309.704 218.25Z" fill="white"/>
<path fill-rule="evenodd" clip-rule="evenodd" d="M184.559 258.875C201.838 258.875 215.846 244.884 215.846 227.625C215.846 210.366 201.838 196.375 184.559 196.375C167.281 196.375 153.273 210.366 153.273 227.625C153.273 244.884 167.281 258.875 184.559 258.875ZM184.559 252.625C198.383 252.625 209.588 241.432 209.588 227.625C209.588 213.818 198.383 202.625 184.559 202.625C170.736 202.625 159.531 213.818 159.531 227.625C159.531 241.432 170.736 252.625 184.559 252.625Z" fill="white"/>
<path fill-rule="evenodd" clip-rule="evenodd" d="M56.2862 380.75C73.5651 380.75 87.5723 366.759 87.5723 349.5C87.5723 332.241 73.5651 318.25 56.2862 318.25C39.0073 318.25 25 332.241 25 349.5C25 366.759 39.0073 380.75 56.2862 380.75ZM56.2862 374.5C70.1093 374.5 81.3151 363.307 81.3151 349.5C81.3151 335.693 70.1093 324.5 56.2862 324.5C42.4631 324.5 31.2572 335.693 31.2572 349.5C31.2572 363.307 42.4631 374.5 56.2862 374.5Z" fill="white"/>
<path d="M885.617 840.125V862H500.303V840.125H885.617Z" fill="white"/>
<path d="M500.303 862V840.125C450.649 840.125 410.396 790.025 410.396 733.053H387.92C387.92 804.268 438.235 862 500.303 862Z" fill="white"/>
<path d="M885.617 840.125V862C947.684 862 998 804.268 998 733.053V290.947C998 219.732 947.684 162 885.617 162H500.303C438.235 162 387.92 219.732 387.92 290.947H410.396C410.396 233.975 450.649 183.875 500.303 183.875L885.617 183.875C935.271 183.875 975.523 233.975 975.523 290.947V733.053C975.523 790.025 935.271 840.125 885.617 840.125Z" fill="white"/>
<path d="M73.1025 327.292L161.726 240.518L166.106 244.981L77.4827 331.756L73.1025 327.292Z" fill="white"/>
<path d="M158.846 465.613L70.4899 374.44L74.9858 370.093L163.342 461.266L158.846 465.613Z" fill="white"/>
<path d="M286.557 434.241L211.063 469.306L208.424 463.638L283.919 428.574L286.557 434.241Z" fill="white"/>
<path d="M161.529 495.297L81.5408 532.449L78.9025 526.782L158.891 489.63L161.529 495.297Z" fill="white"/>
<path d="M59.4148 377.625V518.25H53.1576V377.625H59.4148Z" fill="white"/>
<path d="M68.3851 568.25L117.634 696.747L111.79 698.981L62.5415 570.484L68.3851 568.25Z" fill="white"/>
<path d="M181.044 506.967L136.386 687.905L130.31 686.409L174.969 505.471L181.044 506.967Z" fill="white"/>
<path d="M154.865 735.758L286.882 792.626L284.404 798.365L152.387 741.497L154.865 735.758Z" fill="white"/>
<path d="M208.69 213.82L283.206 197.019L284.584 203.115L210.067 219.916L208.69 213.82Z" fill="white"/>
<path d="M431.72 505.75H998V512H431.72V505.75Z" fill="white"/>
<path fill-rule="evenodd" clip-rule="evenodd" d="M691.083 614.5C749.658 614.5 797.143 567.07 797.143 508.562C797.143 450.055 749.658 402.625 691.083 402.625C632.507 402.625 585.023 450.055 585.023 508.562C585.023 512.566 585.245 516.518 585.678 520.406C587.28 534.786 591.763 548.297 598.538 560.351C616.702 592.665 651.34 614.5 691.083 614.5ZM691.083 610.262C747.315 610.262 792.9 564.73 792.9 508.562C792.9 452.395 747.315 406.862 691.083 406.862C634.85 406.862 589.265 452.395 589.265 508.562C589.265 564.73 634.85 610.262 691.083 610.262Z" fill="white"/>
<path fill-rule="evenodd" clip-rule="evenodd" d="M655.729 581.375C694.78 581.375 726.436 549.755 726.436 510.75C726.436 471.745 694.78 440.125 655.729 440.125C616.679 440.125 585.023 471.745 585.023 510.75C585.023 511.759 585.044 512.763 585.086 513.762C585.18 516.005 585.379 518.222 585.678 520.406C590.392 554.843 619.958 581.375 655.729 581.375ZM655.729 578.55C693.218 578.55 723.608 548.195 723.608 510.75C723.608 473.305 693.218 442.95 655.729 442.95C618.241 442.95 587.851 473.305 587.851 510.75C587.851 548.195 618.241 578.55 655.729 578.55Z" fill="white"/>
<path fill-rule="evenodd" clip-rule="evenodd" d="M620.376 545.125C639.901 545.125 655.729 529.315 655.729 509.812C655.729 490.31 639.901 474.5 620.376 474.5C600.851 474.5 585.023 490.31 585.023 509.812C585.023 529.315 600.851 545.125 620.376 545.125ZM620.061 542.624C638.805 542.624 652.911 528.534 652.911 509.812C652.911 491.089 639.12 476.999 620.376 476.999C601.632 476.999 587.21 491.089 587.21 509.812C587.21 528.534 601.316 542.624 620.061 542.624Z" fill="white"/>
<path fill-rule="evenodd" clip-rule="evenodd" d="M937.524 510.437C937.524 607.95 858.383 687 760.757 687C663.131 687 583.99 607.95 583.99 510.437C583.99 412.925 663.131 333.875 760.757 333.875C858.383 333.875 937.524 412.925 937.524 510.437ZM930.453 510.437C930.453 604.05 854.478 679.937 760.757 679.937C697.397 679.937 642.148 645.254 613.001 593.858C638.782 628.389 679.995 650.75 726.436 650.75C804.537 650.75 867.85 587.51 867.85 509.5C867.85 431.49 804.537 368.25 726.436 368.25C682.783 368.25 643.749 388.007 617.809 419.056C647.977 372.072 700.727 340.937 760.757 340.937C854.478 340.937 930.453 416.825 930.453 510.437ZM613.001 593.858C596.219 571.379 585.975 543.744 585.086 513.762C585.18 516.005 585.379 518.222 585.678 520.406C587.28 534.786 591.763 548.297 598.538 560.351C602.162 572.117 607.035 583.338 613.001 593.858ZM593.284 482.933C605.647 420.763 660.563 373.9 726.436 373.9C801.413 373.9 862.193 434.61 862.193 509.5C862.193 584.39 801.413 645.1 726.436 645.1C658.033 645.1 601.445 594.568 592.049 528.838C591.396 522.794 591.061 516.655 591.061 510.437C591.061 501.072 591.821 491.885 593.284 482.933Z" fill="white"/>
<path d="M585.086 513.762C585.975 543.744 596.219 571.379 613.001 593.858C607.035 583.338 602.162 572.117 598.538 560.351C591.763 548.297 587.28 534.786 585.678 520.406C585.379 518.222 585.18 516.005 585.086 513.762Z" fill="white"/>
</svg>
